  0
SECTION
  2
HEADER
  9
$ANGBASE
  50
0.0
  9
$ANGDIR
  70
  1
  9
$MEASUREMENT
  70
0
  0
ENDSEC
  0
SECTION
  2
TABLES
  0
TABLE
  2
LTYPE
  70
4
  0
LTYPE
  5
40F
  2
CONTINUOUS
  70
0
  3
Solid line
  72
65
  73
0
  40
0.0
  0
LTYPE
  5
410
  2
DASHDOT
 70
0
  3
Dash Dot ____ _ ____ _
 72
65
 73
4
 40
2.0
 49
1.25
 49
-0.25
 49
0.25
 49
-0.25
  0
LTYPE
  5
411
  2
DASHED
 70
0
  3
Dashed __ __ __ __ __
 72
65
 73
2
 40
0.75
 49
0.5
 49
-0.25
  0
LTYPE
  5
43B
  2
DOTTED
 70
0
  3
Dotted .  .  .  .
 72
65
 73
2
 40
0.2
 49
0.0
 49
-0.2
  0
ENDTAB
  0
TABLE
  2
STYLE
  70
4
  0
STYLE
  2
KICAD
  70
0
  40
0
  41
1
  42
1
  50
0
  71
0
  3
isocp.shx
  0
STYLE
  2
KICADB
  70
0
  40
0
  41
1
  42
1
  50
0
  71
0
  3
isocp.shx
  0
STYLE
  2
KICADI
  70
0
  40
0
  41
1
  42
1
  50
15
  71
0
  3
isocp.shx
  0
STYLE
  2
KICADBI
  70
0
  40
0
  41
1
  42
1
  50
15
  71
0
  3
isocp.shx
  0
ENDTAB
  0
TABLE
  2
LAYER
  70
30
  0
LAYER
  2
BLACK
  70
0
  62
7
  6
CONTINUOUS
  0
LAYER
  2
GRAY1
  70
0
  62
251
  6
CONTINUOUS
  0
LAYER
  2
GRAY2
  70
0
  62
8
  6
CONTINUOUS
  0
LAYER
  2
GRAY3
  70
0
  62
9
  6
CONTINUOUS
  0
LAYER
  2
WHITE
  70
0
  62
7
  6
CONTINUOUS
  0
LAYER
  2
LYELLOW
  70
0
  62
51
  6
CONTINUOUS
  0
LAYER
  2
BLUE1
  70
0
  62
178
  6
CONTINUOUS
  0
LAYER
  2
GREEN1
  70
0
  62
98
  6
CONTINUOUS
  0
LAYER
  2
CYAN1
  70
0
  62
138
  6
CONTINUOUS
  0
LAYER
  2
RED1
  70
0
  62
18
  6
CONTINUOUS
  0
LAYER
  2
MAGENTA1
  70
0
  62
228
  6
CONTINUOUS
  0
LAYER
  2
BROWN1
  70
0
  62
58
  6
CONTINUOUS
  0
LAYER
  2
BLUE2
  70
0
  62
5
  6
CONTINUOUS
  0
LAYER
  2
GREEN2
  70
0
  62
3
  6
CONTINUOUS
  0
LAYER
  2
CYAN2
  70
0
  62
4
  6
CONTINUOUS
  0
LAYER
  2
RED2
  70
0
  62
1
  6
CONTINUOUS
  0
LAYER
  2
MAGENTA2
  70
0
  62
6
  6
CONTINUOUS
  0
LAYER
  2
BROWN2
  70
0
  62
54
  6
CONTINUOUS
  0
LAYER
  2
BLUE3
  70
0
  62
171
  6
CONTINUOUS
  0
LAYER
  2
GREEN3
  70
0
  62
91
  6
CONTINUOUS
  0
LAYER
  2
CYAN3
  70
0
  62
131
  6
CONTINUOUS
  0
LAYER
  2
RED3
  70
0
  62
11
  6
CONTINUOUS
  0
LAYER
  2
MAGENTA3
  70
0
  62
221
  6
CONTINUOUS
  0
LAYER
  2
YELLOW3
  70
0
  62
2
  6
CONTINUOUS
  0
LAYER
  2
BLUE4
  70
0
  62
5
  6
CONTINUOUS
  0
LAYER
  2
GREEN4
  70
0
  62
3
  6
CONTINUOUS
  0
LAYER
  2
CYAN4
  70
0
  62
4
  6
CONTINUOUS
  0
LAYER
  2
RED4
  70
0
  62
1
  6
CONTINUOUS
  0
LAYER
  2
MAGENTA4
  70
0
  62
6
  6
CONTINUOUS
  0
LAYER
  2
YELLOW4
  70
0
  62
2
  6
CONTINUOUS
  0
ENDTAB
  0
ENDSEC
  0
SECTION
  2
ENTITIES
0
LINE
8
BLACK
6
CONTINUOUS
10
116.303
20
-83.2769
11
116.307
21
-83.2768
0
LINE
8
BLACK
6
CONTINUOUS
10
116.307
20
-83.2768
11
116.308
21
-83.2769
0
LINE
8
BLACK
6
CONTINUOUS
10
116.308
20
-83.2769
11
116.308
21
-83.2769
0
LINE
8
BLACK
6
CONTINUOUS
10
116.308
20
-83.2769
11
155.368
21
-87.3573
0
LINE
8
BLACK
6
CONTINUOUS
10
155.368
20
-87.3573
11
155.369
21
-87.3574
0
LINE
8
BLACK
6
CONTINUOUS
10
155.369
20
-87.3574
11
155.369
21
-87.3576
0
LINE
8
BLACK
6
CONTINUOUS
10
155.369
20
-87.3576
11
155.37
21
-87.3576
0
LINE
8
BLACK
6
CONTINUOUS
10
155.37
20
-87.3576
11
155.374
21
-87.3586
0
LINE
8
BLACK
6
CONTINUOUS
10
155.374
20
-87.3586
11
155.378
21
-87.3595
0
LINE
8
BLACK
6
CONTINUOUS
10
155.378
20
-87.3595
11
155.379
21
-87.3598
0
LINE
8
BLACK
6
CONTINUOUS
10
155.379
20
-87.3598
11
155.38
21
-87.36
0
LINE
8
BLACK
6
CONTINUOUS
10
155.38
20
-87.36
11
173.273
21
-93.8725
0
LINE
8
BLACK
6
CONTINUOUS
10
173.273
20
-93.8725
11
262.539
21
-93.8744
0
LINE
8
BLACK
6
CONTINUOUS
10
262.539
20
-93.8744
11
280.432
21
-87.3619
0
LINE
8
BLACK
6
CONTINUOUS
10
280.432
20
-87.3619
11
280.432
21
-87.3617
0
LINE
8
BLACK
6
CONTINUOUS
10
280.432
20
-87.3617
11
280.433
21
-87.3615
0
LINE
8
BLACK
6
CONTINUOUS
10
280.433
20
-87.3615
11
280.434
21
-87.3612
0
LINE
8
BLACK
6
CONTINUOUS
10
280.434
20
-87.3612
11
280.438
21
-87.3604
0
LINE
8
BLACK
6
CONTINUOUS
10
280.438
20
-87.3604
11
280.442
21
-87.3594
0
LINE
8
BLACK
6
CONTINUOUS
10
280.442
20
-87.3594
11
280.443
21
-87.3594
0
LINE
8
BLACK
6
CONTINUOUS
10
280.443
20
-87.3594
11
280.444
21
-87.3592
0
LINE
8
BLACK
6
CONTINUOUS
10
280.444
20
-87.3592
11
319.504
21
-83.2788
0
LINE
8
BLACK
6
CONTINUOUS
10
319.504
20
-83.2788
11
319.504
21
-83.2787
0
LINE
8
BLACK
6
CONTINUOUS
10
319.504
20
-83.2787
11
319.505
21
-83.2787
0
LINE
8
BLACK
6
CONTINUOUS
10
319.505
20
-83.2787
11
319.505
21
-83.2787
0
LINE
8
BLACK
6
CONTINUOUS
10
319.505
20
-83.2787
11
319.509
21
-83.2788
0
LINE
8
BLACK
6
CONTINUOUS
10
319.509
20
-83.2788
11
319.514
21
-83.2788
0
LINE
8
BLACK
6
CONTINUOUS
10
319.514
20
-83.2788
11
319.514
21
-83.2789
0
LINE
8
BLACK
6
CONTINUOUS
10
319.514
20
-83.2789
11
319.515
21
-83.2789
0
LINE
8
BLACK
6
CONTINUOUS
10
319.515
20
-83.2789
11
340.673
21
-85.714
0
LINE
8
BLACK
6
CONTINUOUS
10
340.673
20
-85.714
11
340.674
21
-85.714
0
LINE
8
BLACK
6
CONTINUOUS
10
340.674
20
-85.714
11
340.677
21
-85.7147
0
LINE
8
BLACK
6
CONTINUOUS
10
340.677
20
-85.7147
11
340.68
21
-85.7151
0
LINE
8
BLACK
6
CONTINUOUS
10
340.68
20
-85.7151
11
340.682
21
-85.7158
0
LINE
8
BLACK
6
CONTINUOUS
10
340.682
20
-85.7158
11
340.684
21
-85.7162
0
LINE
8
BLACK
6
CONTINUOUS
10
340.684
20
-85.7162
11
340.686
21
-85.7174
0
LINE
8
BLACK
6
CONTINUOUS
10
340.686
20
-85.7174
11
340.689
21
-85.7184
0
LINE
8
BLACK
6
CONTINUOUS
10
340.689
20
-85.7184
11
340.691
21
-85.7194
0
LINE
8
BLACK
6
CONTINUOUS
10
340.691
20
-85.7194
11
340.693
21
-85.7202
0
LINE
8
BLACK
6
CONTINUOUS
10
340.693
20
-85.7202
11
340.695
21
-85.7219
0
LINE
8
BLACK
6
CONTINUOUS
10
340.695
20
-85.7219
11
340.697
21
-85.7234
0
LINE
8
BLACK
6
CONTINUOUS
10
340.697
20
-85.7234
11
340.699
21
-85.7247
0
LINE
8
BLACK
6
CONTINUOUS
10
340.699
20
-85.7247
11
340.7
21
-85.7259
0
LINE
8
BLACK
6
CONTINUOUS
10
340.7
20
-85.7259
11
340.702
21
-85.728
0
LINE
8
BLACK
6
CONTINUOUS
10
340.702
20
-85.728
11
340.705
21
-85.7299
0
LINE
8
BLACK
6
CONTINUOUS
10
340.705
20
-85.7299
11
340.706
21
-85.7315
0
LINE
8
BLACK
6
CONTINUOUS
10
340.706
20
-85.7315
11
340.707
21
-85.733
0
LINE
8
BLACK
6
CONTINUOUS
10
340.707
20
-85.733
11
340.709
21
-85.7354
0
LINE
8
BLACK
6
CONTINUOUS
10
340.709
20
-85.7354
11
340.71
21
-85.7377
0
LINE
8
BLACK
6
CONTINUOUS
10
340.71
20
-85.7377
11
340.711
21
-85.7395
0
LINE
8
BLACK
6
CONTINUOUS
10
340.711
20
-85.7395
11
340.712
21
-85.7412
0
LINE
8
BLACK
6
CONTINUOUS
10
340.712
20
-85.7412
11
340.713
21
-85.7439
0
LINE
8
BLACK
6
CONTINUOUS
10
340.713
20
-85.7439
11
340.715
21
-85.7465
0
LINE
8
BLACK
6
CONTINUOUS
10
340.715
20
-85.7465
11
366.777
21
-157.351
0
LINE
8
BLACK
6
CONTINUOUS
10
366.777
20
-157.351
11
366.777
21
-157.351
0
LINE
8
BLACK
6
CONTINUOUS
10
366.777
20
-157.351
11
366.777
21
-157.351
0
LINE
8
BLACK
6
CONTINUOUS
10
366.777
20
-157.351
11
366.777
21
-157.351
0
LINE
8
BLACK
6
CONTINUOUS
10
366.777
20
-157.351
11
366.777
21
-157.352
0
LINE
8
BLACK
6
CONTINUOUS
10
366.777
20
-157.352
11
366.778
21
-157.356
0
LINE
8
BLACK
6
CONTINUOUS
10
366.778
20
-157.356
11
366.779
21
-157.361
0
LINE
8
BLACK
6
CONTINUOUS
10
366.779
20
-157.361
11
366.779
21
-157.361
0
LINE
8
BLACK
6
CONTINUOUS
10
366.779
20
-157.361
11
366.779
21
-157.361
0
LINE
8
BLACK
6
CONTINUOUS
10
366.779
20
-157.361
11
366.779
21
-157.366
0
LINE
8
BLACK
6
CONTINUOUS
10
366.779
20
-157.366
11
366.78
21
-157.371
0
LINE
8
BLACK
6
CONTINUOUS
10
366.78
20
-157.371
11
366.78
21
-157.371
0
LINE
8
BLACK
6
CONTINUOUS
10
366.78
20
-157.371
11
366.78
21
-157.371
0
LINE
8
BLACK
6
CONTINUOUS
10
366.78
20
-157.371
11
366.779
21
-157.376
0
LINE
8
BLACK
6
CONTINUOUS
10
366.779
20
-157.376
11
366.778
21
-157.38
0
LINE
8
BLACK
6
CONTINUOUS
10
366.778
20
-157.38
11
366.778
21
-157.38
0
LINE
8
BLACK
6
CONTINUOUS
10
366.778
20
-157.38
11
366.778
21
-157.381
0
LINE
8
BLACK
6
CONTINUOUS
10
366.778
20
-157.381
11
366.776
21
-157.385
0
LINE
8
BLACK
6
CONTINUOUS
10
366.776
20
-157.385
11
366.775
21
-157.389
0
LINE
8
BLACK
6
CONTINUOUS
10
366.775
20
-157.389
11
366.775
21
-157.39
0
LINE
8
BLACK
6
CONTINUOUS
10
366.775
20
-157.39
11
366.775
21
-157.39
0
LINE
8
BLACK
6
CONTINUOUS
10
366.775
20
-157.39
11
366.772
21
-157.394
0
LINE
8
BLACK
6
CONTINUOUS
10
366.772
20
-157.394
11
366.77
21
-157.398
0
LINE
8
BLACK
6
CONTINUOUS
10
366.77
20
-157.398
11
366.77
21
-157.398
0
LINE
8
BLACK
6
CONTINUOUS
10
366.77
20
-157.398
11
366.77
21
-157.398
0
LINE
8
BLACK
6
CONTINUOUS
10
366.77
20
-157.398
11
366.767
21
-157.402
0
LINE
8
BLACK
6
CONTINUOUS
10
366.767
20
-157.402
11
366.763
21
-157.405
0
LINE
8
BLACK
6
CONTINUOUS
10
366.763
20
-157.405
11
366.763
21
-157.405
0
LINE
8
BLACK
6
CONTINUOUS
10
366.763
20
-157.405
11
366.763
21
-157.405
0
LINE
8
BLACK
6
CONTINUOUS
10
366.763
20
-157.405
11
366.759
21
-157.408
0
LINE
8
BLACK
6
CONTINUOUS
10
366.759
20
-157.408
11
366.756
21
-157.411
0
LINE
8
BLACK
6
CONTINUOUS
10
366.756
20
-157.411
11
366.755
21
-157.411
0
LINE
8
BLACK
6
CONTINUOUS
10
366.755
20
-157.411
11
366.755
21
-157.411
0
LINE
8
BLACK
6
CONTINUOUS
10
366.755
20
-157.411
11
366.751
21
-157.413
0
LINE
8
BLACK
6
CONTINUOUS
10
366.751
20
-157.413
11
366.747
21
-157.415
0
LINE
8
BLACK
6
CONTINUOUS
10
366.747
20
-157.415
11
348.846
21
-163.931
0
LINE
8
BLACK
6
CONTINUOUS
10
348.846
20
-163.931
11
348.845
21
-163.931
0
LINE
8
BLACK
6
CONTINUOUS
10
348.845
20
-163.931
11
348.842
21
-163.932
0
LINE
8
BLACK
6
CONTINUOUS
10
348.842
20
-163.932
11
348.839
21
-163.932
0
LINE
8
BLACK
6
CONTINUOUS
10
348.839
20
-163.932
11
217.919
21
-193.358
0
LINE
8
BLACK
6
CONTINUOUS
10
217.919
20
-193.358
11
217.918
21
-193.358
0
LINE
8
BLACK
6
CONTINUOUS
10
217.918
20
-193.358
11
217.917
21
-193.358
0
LINE
8
BLACK
6
CONTINUOUS
10
217.917
20
-193.358
11
217.916
21
-193.359
0
LINE
8
BLACK
6
CONTINUOUS
10
217.916
20
-193.359
11
217.912
21
-193.359
0
LINE
8
BLACK
6
CONTINUOUS
10
217.912
20
-193.359
11
217.909
21
-193.359
0
LINE
8
BLACK
6
CONTINUOUS
10
217.909
20
-193.359
11
217.908
21
-193.359
0
LINE
8
BLACK
6
CONTINUOUS
10
217.908
20
-193.359
11
217.907
21
-193.359
0
LINE
8
BLACK
6
CONTINUOUS
10
217.907
20
-193.359
11
217.903
21
-193.359
0
LINE
8
BLACK
6
CONTINUOUS
10
217.903
20
-193.359
11
217.899
21
-193.358
0
LINE
8
BLACK
6
CONTINUOUS
10
217.899
20
-193.358
11
217.898
21
-193.358
0
LINE
8
BLACK
6
CONTINUOUS
10
217.898
20
-193.358
11
217.897
21
-193.358
0
LINE
8
BLACK
6
CONTINUOUS
10
217.897
20
-193.358
11
86.9721
21
-163.931
0
LINE
8
BLACK
6
CONTINUOUS
10
86.9721
20
-163.931
11
86.9714
21
-163.93
0
LINE
8
BLACK
6
CONTINUOUS
10
86.9714
20
-163.93
11
86.9687
21
-163.929
0
LINE
8
BLACK
6
CONTINUOUS
10
86.9687
20
-163.929
11
86.9659
21
-163.929
0
LINE
8
BLACK
6
CONTINUOUS
10
86.9659
20
-163.929
11
69.0648
21
-157.413
0
LINE
8
BLACK
6
CONTINUOUS
10
69.0648
20
-157.413
11
69.0645
21
-157.413
0
LINE
8
BLACK
6
CONTINUOUS
10
69.0645
20
-157.413
11
69.0645
21
-157.413
0
LINE
8
BLACK
6
CONTINUOUS
10
69.0645
20
-157.413
11
69.0644
21
-157.413
0
LINE
8
BLACK
6
CONTINUOUS
10
69.0644
20
-157.413
11
69.0641
21
-157.413
0
LINE
8
BLACK
6
CONTINUOUS
10
69.0641
20
-157.413
11
69.06
21
-157.411
0
LINE
8
BLACK
6
CONTINUOUS
10
69.06
20
-157.411
11
69.0557
21
-157.409
0
LINE
8
BLACK
6
CONTINUOUS
10
69.0557
20
-157.409
11
69.0555
21
-157.409
0
LINE
8
BLACK
6
CONTINUOUS
10
69.0555
20
-157.409
11
69.0554
21
-157.409
0
LINE
8
BLACK
6
CONTINUOUS
10
69.0554
20
-157.409
11
69.0517
21
-157.406
0
LINE
8
BLACK
6
CONTINUOUS
10
69.0517
20
-157.406
11
69.0479
21
-157.403
0
LINE
8
BLACK
6
CONTINUOUS
10
69.0479
20
-157.403
11
69.0478
21
-157.403
0
LINE
8
BLACK
6
CONTINUOUS
10
69.0478
20
-157.403
11
69.0477
21
-157.403
0
LINE
8
BLACK
6
CONTINUOUS
10
69.0477
20
-157.403
11
69.0445
21
-157.399
0
LINE
8
BLACK
6
CONTINUOUS
10
69.0445
20
-157.399
11
69.0414
21
-157.396
0
LINE
8
BLACK
6
CONTINUOUS
10
69.0414
20
-157.396
11
69.0413
21
-157.396
0
LINE
8
BLACK
6
CONTINUOUS
10
69.0413
20
-157.396
11
69.0412
21
-157.395
0
LINE
8
BLACK
6
CONTINUOUS
10
69.0412
20
-157.395
11
69.0389
21
-157.391
0
LINE
8
BLACK
6
CONTINUOUS
10
69.0389
20
-157.391
11
69.0365
21
-157.387
0
LINE
8
BLACK
6
CONTINUOUS
10
69.0365
20
-157.387
11
69.0364
21
-157.387
0
LINE
8
BLACK
6
CONTINUOUS
10
69.0364
20
-157.387
11
69.0363
21
-157.387
0
LINE
8
BLACK
6
CONTINUOUS
10
69.0363
20
-157.387
11
69.0348
21
-157.383
0
LINE
8
BLACK
6
CONTINUOUS
10
69.0348
20
-157.383
11
69.0333
21
-157.378
0
LINE
8
BLACK
6
CONTINUOUS
10
69.0333
20
-157.378
11
69.0333
21
-157.378
0
LINE
8
BLACK
6
CONTINUOUS
10
69.0333
20
-157.378
11
69.0332
21
-157.378
0
LINE
8
BLACK
6
CONTINUOUS
10
69.0332
20
-157.378
11
69.0326
21
-157.373
0
LINE
8
BLACK
6
CONTINUOUS
10
69.0326
20
-157.373
11
69.0319
21
-157.368
0
LINE
8
BLACK
6
CONTINUOUS
10
69.0319
20
-157.368
11
69.0319
21
-157.368
0
LINE
8
BLACK
6
CONTINUOUS
10
69.0319
20
-157.368
11
69.0319
21
-157.368
0
LINE
8
BLACK
6
CONTINUOUS
10
69.0319
20
-157.368
11
69.0322
21
-157.363
0
LINE
8
BLACK
6
CONTINUOUS
10
69.0322
20
-157.363
11
69.0325
21
-157.359
0
LINE
8
BLACK
6
CONTINUOUS
10
69.0325
20
-157.359
11
69.0325
21
-157.358
0
LINE
8
BLACK
6
CONTINUOUS
10
69.0325
20
-157.358
11
69.0325
21
-157.358
0
LINE
8
BLACK
6
CONTINUOUS
10
69.0325
20
-157.358
11
69.0337
21
-157.354
0
LINE
8
BLACK
6
CONTINUOUS
10
69.0337
20
-157.354
11
69.0349
21
-157.349
0
LINE
8
BLACK
6
CONTINUOUS
10
69.0349
20
-157.349
11
95.0968
21
-85.7446
0
LINE
8
BLACK
6
CONTINUOUS
10
95.0968
20
-85.7446
11
95.0971
21
-85.744
0
LINE
8
BLACK
6
CONTINUOUS
10
95.0971
20
-85.744
11
95.0984
21
-85.7414
0
LINE
8
BLACK
6
CONTINUOUS
10
95.0984
20
-85.7414
11
95.0994
21
-85.7387
0
LINE
8
BLACK
6
CONTINUOUS
10
95.0994
20
-85.7387
11
95.1005
21
-85.737
0
LINE
8
BLACK
6
CONTINUOUS
10
95.1005
20
-85.737
11
95.1014
21
-85.7352
0
LINE
8
BLACK
6
CONTINUOUS
10
95.1014
20
-85.7352
11
95.1032
21
-85.7329
0
LINE
8
BLACK
6
CONTINUOUS
10
95.1032
20
-85.7329
11
95.1048
21
-85.7305
0
LINE
8
BLACK
6
CONTINUOUS
10
95.1048
20
-85.7305
11
95.1061
21
-85.7291
0
LINE
8
BLACK
6
CONTINUOUS
10
95.1061
20
-85.7291
11
95.1074
21
-85.7275
0
LINE
8
BLACK
6
CONTINUOUS
10
95.1074
20
-85.7275
11
95.1096
21
-85.7256
0
LINE
8
BLACK
6
CONTINUOUS
10
95.1096
20
-85.7256
11
95.1116
21
-85.7235
0
LINE
8
BLACK
6
CONTINUOUS
10
95.1116
20
-85.7235
11
95.1132
21
-85.7224
0
LINE
8
BLACK
6
CONTINUOUS
10
95.1132
20
-85.7224
11
95.1147
21
-85.7211
0
LINE
8
BLACK
6
CONTINUOUS
10
95.1147
20
-85.7211
11
95.1172
21
-85.7196
0
LINE
8
BLACK
6
CONTINUOUS
10
95.1172
20
-85.7196
11
95.1196
21
-85.718
0
LINE
8
BLACK
6
CONTINUOUS
10
95.1196
20
-85.718
11
95.1214
21
-85.7172
0
LINE
8
BLACK
6
CONTINUOUS
10
95.1214
20
-85.7172
11
95.1232
21
-85.7162
0
LINE
8
BLACK
6
CONTINUOUS
10
95.1232
20
-85.7162
11
95.1259
21
-85.7152
0
LINE
8
BLACK
6
CONTINUOUS
10
95.1259
20
-85.7152
11
95.1286
21
-85.7141
0
LINE
8
BLACK
6
CONTINUOUS
10
95.1286
20
-85.7141
11
95.1305
21
-85.7137
0
LINE
8
BLACK
6
CONTINUOUS
10
95.1305
20
-85.7137
11
95.1324
21
-85.713
0
LINE
8
BLACK
6
CONTINUOUS
10
95.1324
20
-85.713
11
95.1353
21
-85.7127
0
LINE
8
BLACK
6
CONTINUOUS
10
95.1353
20
-85.7127
11
95.1381
21
-85.712
0
LINE
8
BLACK
6
CONTINUOUS
10
95.1381
20
-85.712
11
116.297
21
-83.2769
0
LINE
8
BLACK
6
CONTINUOUS
10
116.297
20
-83.2769
11
116.298
21
-83.2769
0
LINE
8
BLACK
6
CONTINUOUS
10
116.298
20
-83.2769
11
116.298
21
-83.2769
0
LINE
8
BLACK
6
CONTINUOUS
10
116.298
20
-83.2769
11
116.298
21
-83.2768
0
LINE
8
BLACK
6
CONTINUOUS
10
116.298
20
-83.2768
11
116.303
21
-83.2769
  0
ENDSEC
  0
EOF
