M48
; DRILL file {KiCad (5.1.0)-1} date 2019/05/23 12:13:15
; FORMAT={-:-/ absolute / metric / decimal}
; #@! TF.CreationDate,2019-05-23T12:13:15+09:00
; #@! TF.GenerationSoftware,Kicad,Pcbnew,(5.1.0)-1
FMAT,2
METRIC
T1C0.400
T2C0.800
T3C1.100
T4C1.500
T5C1.700
T6C1.900
T7C2.000
T8C4.000
%
G90
G05
T1
X217.908Y-124.448
T2
X277.533Y-135.097
X280.139Y-142.258
X150.802Y-99.938
X153.408Y-92.777
X243.251Y-152.305
X245.857Y-159.465
X222.092Y-149.87
X224.699Y-157.03
X178.568Y-135.047
X181.175Y-127.886
X344.268Y-151.353
X346.874Y-158.513
X337.752Y-133.452
X340.358Y-140.612
X105.226Y-113.759
X107.833Y-106.598
X236.736Y-134.404
X239.342Y-141.564
X193.212Y-150.513
X195.818Y-143.352
X264.502Y-99.295
X267.108Y-106.455
X228.608Y-167.771
X231.214Y-174.931
X90.965Y-105.633
X98.125Y-108.239
X266.148Y-159.514
X268.754Y-166.674
X149.157Y-160.157
X151.763Y-152.996
X84.449Y-123.534
X91.61Y-126.14
X110.097Y-156.076
X112.703Y-148.916
X292.177Y-119.631
X294.783Y-126.791
X129.643Y-102.373
X132.249Y-95.212
X165.537Y-170.849
X168.144Y-163.689
X331.237Y-115.551
X333.843Y-122.711
X168.703Y-106.453
X171.309Y-99.293
X284.049Y-152.998
X286.655Y-160.159
X298.692Y-137.532
X301.298Y-144.693
X111.742Y-95.857
X114.348Y-88.697
X271.018Y-117.196
X273.624Y-124.356
X123.128Y-120.274
X125.734Y-113.114
X162.188Y-124.354
X164.794Y-117.194
X97.48Y-87.732
X104.641Y-90.338
X285.661Y-101.73
X288.267Y-108.89
X253.117Y-123.711
X255.723Y-130.872
X116.612Y-138.175
X119.218Y-131.015
X186.696Y-168.414
X189.303Y-161.254
X323.109Y-148.918
X325.715Y-156.078
X155.672Y-142.256
X158.278Y-135.095
X98.711Y-131.66
X101.317Y-124.499
X230.22Y-116.503
X232.826Y-123.663
X144.286Y-117.839
X146.893Y-110.679
X249.767Y-170.206
X252.373Y-177.367
X246.601Y-105.81
X249.207Y-112.971
X259.632Y-141.613
X262.238Y-148.773
X92.195Y-149.561
X94.802Y-142.4
X324.721Y-97.649
X327.327Y-104.81
X172.053Y-152.948
X174.659Y-145.788
X208.468Y-175.798
X213.856Y-170.41
X316.593Y-131.017
X319.199Y-138.177
X185.084Y-117.146
X187.69Y-109.985
X131.255Y-153.641
X133.862Y-146.481
X303.562Y-95.214
X306.169Y-102.375
X305.208Y-155.433
X307.814Y-162.594
X310.078Y-113.116
X312.684Y-120.276
X77.934Y-141.435
X85.094Y-144.041
X137.771Y-135.74
X140.377Y-128.58
T3
X210.288Y-110.478
X210.288Y-113.018
X210.288Y-115.558
X210.288Y-118.098
X210.288Y-120.638
X210.288Y-123.178
X210.288Y-125.718
X210.288Y-128.258
X210.288Y-130.798
X210.288Y-133.338
X210.288Y-135.878
X210.288Y-138.418
X225.528Y-110.478
X225.528Y-113.018
X225.528Y-115.558
X225.528Y-118.098
X225.528Y-120.638
X225.528Y-123.178
X225.528Y-125.718
X225.528Y-128.258
X225.528Y-130.798
X225.528Y-133.338
X225.528Y-135.878
X225.528Y-138.418
X228.494Y-100.367
X228.494Y-104.867
X234.994Y-100.367
X234.994Y-104.867
T4
X252.406Y-105.049
X253.456Y-111.414
X257.504Y-100.49
X258.873Y-111.677
X249.056Y-151.544
X250.106Y-157.908
X254.154Y-146.985
X255.523Y-158.172
X227.897Y-149.109
X228.947Y-155.473
X232.995Y-144.55
X234.364Y-155.737
X291.466Y-100.969
X292.516Y-107.333
X296.564Y-96.41
X297.933Y-107.597
X169.793Y-172.387
X173.08Y-166.837
X173.773Y-176.071
X179.915Y-166.622
X127.383Y-121.812
X130.67Y-116.262
X131.363Y-125.496
X137.505Y-116.047
X289.853Y-152.237
X290.904Y-158.602
X294.952Y-147.678
X296.32Y-158.865
X88.323Y-117.732
X91.61Y-112.181
X92.303Y-121.415
X98.445Y-111.966
X148.542Y-119.377
X151.829Y-113.827
X152.522Y-123.061
X158.664Y-113.612
X96.451Y-151.099
X99.738Y-145.548
X100.431Y-154.783
X106.573Y-145.333
X81.808Y-135.629
X85.094Y-130.078
X85.788Y-139.313
X91.93Y-129.863
X109.482Y-115.297
X112.769Y-109.746
X113.462Y-118.98
X119.604Y-109.531
X328.913Y-148.157
X329.964Y-154.521
X334.012Y-143.598
X335.38Y-154.784
X166.443Y-125.893
X169.73Y-120.342
X170.423Y-129.576
X176.566Y-120.127
X190.952Y-169.952
X194.239Y-164.402
X194.932Y-173.636
X201.074Y-164.187
X309.367Y-94.453
X310.417Y-100.818
X314.465Y-89.894
X315.834Y-101.081
X182.824Y-136.585
X186.111Y-131.034
X186.804Y-140.269
X192.946Y-130.819
X337.041Y-114.789
X338.092Y-121.154
X342.14Y-110.231
X343.508Y-121.417
X343.557Y-132.691
X344.607Y-139.055
X348.655Y-128.132
X350.024Y-139.318
X322.398Y-130.255
X323.448Y-136.62
X327.496Y-125.697
X328.865Y-136.883
X315.883Y-112.354
X316.933Y-118.719
X320.981Y-107.796
X322.349Y-118.982
X155.057Y-101.476
X158.344Y-95.925
X159.038Y-105.16
X165.18Y-95.71
X236.025Y-115.741
X237.075Y-122.106
X241.123Y-111.183
X242.492Y-122.369
X142.026Y-137.278
X145.313Y-131.728
X146.007Y-140.962
X152.149Y-131.513
X75.292Y-153.53
X78.579Y-147.98
X79.272Y-157.214
X85.414Y-147.765
X304.497Y-136.771
X305.547Y-143.136
X309.595Y-132.212
X310.964Y-143.399
X211.685Y-178.99
X213.736Y-184.011
X217.01Y-175.349
X223.296Y-178.043
X176.308Y-154.486
X179.595Y-148.936
X180.289Y-158.17
X186.431Y-148.721
X283.338Y-134.336
X284.388Y-140.7
X288.436Y-129.777
X289.805Y-140.964
X135.511Y-155.18
X138.798Y-149.629
X139.491Y-158.863
X145.633Y-149.414
X276.822Y-116.435
X277.873Y-122.799
X281.921Y-111.876
X283.289Y-123.063
X242.54Y-133.643
X243.591Y-140.007
X247.639Y-129.084
X249.007Y-140.27
X102.966Y-133.198
X106.253Y-127.647
X106.947Y-136.881
X113.089Y-127.432
X258.921Y-122.95
X259.972Y-129.315
X264.02Y-118.392
X265.388Y-129.578
X115.997Y-97.396
X119.284Y-91.845
X119.978Y-101.079
X126.12Y-91.63
X234.413Y-167.01
X235.463Y-173.374
X239.511Y-162.451
X240.879Y-173.638
X172.959Y-107.992
X176.245Y-102.441
X176.939Y-111.675
X183.081Y-102.226
X350.072Y-150.592
X351.123Y-156.956
X355.171Y-146.033
X356.539Y-157.22
X271.952Y-158.752
X273.002Y-165.117
X277.051Y-154.194
X278.419Y-165.38
X94.839Y-99.831
X98.125Y-94.28
X98.819Y-103.514
X104.961Y-94.065
X159.928Y-143.794
X163.214Y-138.243
X163.908Y-147.477
X170.05Y-138.028
X311.012Y-154.672
X312.063Y-161.037
X316.111Y-150.113
X317.479Y-161.3
X114.352Y-157.615
X117.639Y-152.064
X118.332Y-161.298
X124.475Y-151.849
X133.899Y-103.911
X137.185Y-98.361
X137.879Y-107.595
X144.021Y-98.146
X153.412Y-161.695
X156.699Y-156.144
X157.392Y-165.378
X163.535Y-155.929
X330.526Y-96.888
X331.576Y-103.253
X335.624Y-92.33
X336.993Y-103.516
X189.339Y-118.684
X192.626Y-113.133
X193.32Y-122.367
X199.462Y-112.918
X270.307Y-98.534
X271.357Y-104.898
X275.405Y-93.975
X276.774Y-105.161
X255.571Y-169.445
X256.622Y-175.81
X260.67Y-164.886
X262.038Y-176.073
X120.868Y-139.713
X124.154Y-134.163
X124.848Y-143.397
X130.99Y-133.948
X265.437Y-140.851
X266.487Y-147.216
X270.535Y-136.293
X271.904Y-147.479
X297.981Y-118.87
X299.032Y-125.234
X303.08Y-114.311
X304.448Y-125.498
X197.467Y-152.051
X200.754Y-146.501
X201.448Y-155.735
X207.59Y-146.286
T5
X271.628Y-161.574
X281.175Y-158.099
X96.063Y-96.233
X105.61Y-99.707
X161.152Y-140.196
X170.699Y-143.671
X310.688Y-157.493
X320.235Y-154.018
X115.577Y-154.016
X125.124Y-157.491
X135.123Y-100.313
X144.67Y-103.788
X154.637Y-158.097
X164.184Y-161.572
X330.201Y-99.709
X339.749Y-96.234
X190.564Y-115.086
X200.111Y-118.561
X269.982Y-101.355
X279.53Y-97.88
X255.247Y-172.266
X264.794Y-168.791
X122.092Y-136.115
X131.639Y-139.59
X265.112Y-143.672
X274.659Y-140.198
X297.657Y-121.691
X307.204Y-118.216
X198.692Y-148.453
X208.239Y-151.928
X252.081Y-107.87
X261.628Y-104.395
X248.731Y-154.365
X258.279Y-150.89
X227.572Y-151.93
X237.12Y-148.455
X291.141Y-103.79
X300.688Y-100.315
X171.017Y-168.789
X180.565Y-172.264
X128.608Y-118.214
X138.155Y-121.689
X289.529Y-155.058
X299.076Y-151.583
X89.548Y-114.134
X99.095Y-117.609
X149.766Y-115.779
X159.314Y-119.254
X97.675Y-147.501
X107.223Y-150.976
X83.032Y-132.031
X92.579Y-135.506
X110.706Y-111.699
X120.254Y-115.174
X328.589Y-150.978
X338.136Y-147.503
X167.668Y-122.294
X177.215Y-125.769
X192.176Y-166.354
X201.724Y-169.829
X309.042Y-97.274
X318.59Y-93.799
X184.048Y-132.987
X193.596Y-136.462
X336.717Y-117.611
X346.264Y-114.136
X343.232Y-135.512
X352.779Y-132.037
X322.073Y-133.077
X331.621Y-129.602
X315.558Y-115.175
X325.105Y-111.701
X156.282Y-97.878
X165.829Y-101.353
X235.7Y-118.563
X245.248Y-115.088
X143.251Y-133.68
X152.798Y-137.155
X76.517Y-149.932
X86.064Y-153.407
X304.172Y-139.592
X313.719Y-136.117
X214.316Y-176.247
X221.5Y-183.431
X177.533Y-150.888
X187.08Y-154.363
X283.013Y-137.157
X292.561Y-133.682
X136.735Y-151.581
X146.283Y-155.056
X276.498Y-119.256
X286.045Y-115.781
X242.216Y-136.464
X251.763Y-132.989
X104.191Y-129.6
X113.738Y-133.075
X258.597Y-125.771
X268.144Y-122.296
X117.222Y-93.797
X126.769Y-97.272
X234.088Y-169.831
X243.635Y-166.356
X174.183Y-104.393
X183.73Y-107.868
X349.748Y-153.413
X359.295Y-149.938
T6
X233.693Y-169.975
X244.03Y-166.212
X173.788Y-104.25
X184.125Y-108.012
X349.353Y-153.556
X359.69Y-149.794
X271.233Y-161.717
X281.57Y-157.955
X95.668Y-96.089
X106.005Y-99.851
X160.757Y-140.052
X171.094Y-143.814
X310.293Y-157.637
X320.63Y-153.875
X115.182Y-153.873
X125.519Y-157.635
X134.728Y-100.169
X145.065Y-103.932
X154.242Y-157.953
X164.579Y-161.715
X329.807Y-99.853
X340.143Y-96.091
X190.169Y-114.942
X200.506Y-118.704
X269.588Y-101.498
X279.924Y-97.736
X254.852Y-172.41
X265.189Y-168.647
X121.697Y-135.972
X132.034Y-139.734
X264.717Y-143.816
X275.054Y-140.054
X297.262Y-121.835
X307.599Y-118.072
X198.297Y-148.309
X208.634Y-152.072
X251.687Y-108.014
X262.023Y-104.252
X248.337Y-154.509
X258.673Y-150.746
X227.178Y-152.073
X237.514Y-148.311
X290.747Y-103.933
X301.083Y-100.171
X170.623Y-168.646
X180.959Y-172.408
X128.213Y-118.07
X138.55Y-121.833
X289.134Y-155.202
X299.471Y-151.44
X89.153Y-113.99
X99.489Y-117.752
X149.372Y-115.635
X159.708Y-119.398
X97.281Y-147.357
X107.617Y-151.119
X82.637Y-131.887
X92.974Y-135.649
X110.312Y-111.555
X120.648Y-115.317
X328.194Y-151.121
X338.531Y-147.359
X167.273Y-122.151
X177.61Y-125.913
X191.782Y-166.21
X202.118Y-169.973
X308.648Y-97.418
X318.984Y-93.656
X183.654Y-132.843
X193.99Y-136.605
X336.322Y-117.754
X346.659Y-113.992
X342.838Y-135.655
X353.174Y-131.893
X321.679Y-133.22
X332.015Y-129.458
X315.163Y-115.319
X325.5Y-111.557
X155.887Y-97.734
X166.224Y-101.496
X235.306Y-118.706
X245.642Y-114.944
X142.856Y-133.537
X153.193Y-137.299
X76.122Y-149.788
X86.459Y-153.551
X303.778Y-139.736
X314.114Y-135.974
X214.019Y-175.95
X221.797Y-183.728
X177.138Y-150.744
X187.475Y-154.507
X282.619Y-137.301
X292.955Y-133.538
X136.341Y-151.438
X146.677Y-155.2
X276.103Y-119.4
X286.44Y-115.637
X241.821Y-136.607
X252.158Y-132.845
X103.796Y-129.456
X114.133Y-133.218
X258.202Y-125.915
X268.539Y-122.153
X116.827Y-93.654
X127.164Y-97.416
T7
X217.908Y-144.501
X176.616Y-140.417
X217.908Y-168.123
X206.214Y-111.735
X296.742Y-132.159
X96.76Y-137.031
X257.676Y-136.243
X229.592Y-111.735
X142.336Y-123.205
X335.802Y-128.085
T8
X326.847Y-131.339
X320.331Y-113.438
X161.056Y-99.615
X240.474Y-116.825
X148.025Y-135.418
X81.29Y-151.669
X308.946Y-137.855
X217.908Y-179.839
X182.307Y-152.626
X287.787Y-135.42
X141.509Y-153.319
X281.271Y-117.518
X246.989Y-134.726
X108.965Y-131.337
X263.37Y-124.034
X121.996Y-95.535
X238.862Y-168.093
X178.957Y-106.131
X354.521Y-151.675
X276.401Y-159.836
X100.837Y-97.97
X165.926Y-141.933
X315.461Y-155.756
X120.35Y-155.754
X139.897Y-102.05
X159.41Y-159.834
X334.975Y-97.972
X195.338Y-116.823
X274.756Y-99.617
X260.02Y-170.529
X126.866Y-137.853
X269.886Y-141.935
X302.43Y-119.953
X203.465Y-150.19
X256.855Y-106.133
X253.505Y-152.627
X232.346Y-150.192
X295.915Y-102.052
X175.791Y-170.527
X133.381Y-119.952
X294.302Y-153.321
X94.321Y-115.871
X154.54Y-117.516
X102.449Y-149.238
X87.806Y-133.768
X115.48Y-113.436
X333.362Y-149.24
X172.441Y-124.032
X196.95Y-168.092
X313.816Y-95.537
X188.822Y-134.724
X341.49Y-115.873
X348.006Y-133.774
T0
M30
