  0
SECTION
  2
HEADER
  9
$ANGBASE
  50
0.0
  9
$ANGDIR
  70
  1
  9
$MEASUREMENT
  70
0
  0
ENDSEC
  0
SECTION
  2
TABLES
  0
TABLE
  2
LTYPE
  70
4
  0
LTYPE
  5
40F
  2
CONTINUOUS
  70
0
  3
Solid line
  72
65
  73
0
  40
0.0
  0
LTYPE
  5
410
  2
DASHDOT
 70
0
  3
Dash Dot ____ _ ____ _
 72
65
 73
4
 40
2.0
 49
1.25
 49
-0.25
 49
0.25
 49
-0.25
  0
LTYPE
  5
411
  2
DASHED
 70
0
  3
Dashed __ __ __ __ __
 72
65
 73
2
 40
0.75
 49
0.5
 49
-0.25
  0
LTYPE
  5
43B
  2
DOTTED
 70
0
  3
Dotted .  .  .  .
 72
65
 73
2
 40
0.2
 49
0.0
 49
-0.2
  0
ENDTAB
  0
TABLE
  2
STYLE
  70
4
  0
STYLE
  2
KICAD
  70
0
  40
0
  41
1
  42
1
  50
0
  71
0
  3
isocp.shx
  0
STYLE
  2
KICADB
  70
0
  40
0
  41
1
  42
1
  50
0
  71
0
  3
isocp.shx
  0
STYLE
  2
KICADI
  70
0
  40
0
  41
1
  42
1
  50
15
  71
0
  3
isocp.shx
  0
STYLE
  2
KICADBI
  70
0
  40
0
  41
1
  42
1
  50
15
  71
0
  3
isocp.shx
  0
ENDTAB
  0
TABLE
  2
LAYER
  70
30
  0
LAYER
  2
BLACK
  70
0
  62
7
  6
CONTINUOUS
  0
LAYER
  2
GRAY1
  70
0
  62
251
  6
CONTINUOUS
  0
LAYER
  2
GRAY2
  70
0
  62
8
  6
CONTINUOUS
  0
LAYER
  2
GRAY3
  70
0
  62
9
  6
CONTINUOUS
  0
LAYER
  2
WHITE
  70
0
  62
7
  6
CONTINUOUS
  0
LAYER
  2
LYELLOW
  70
0
  62
51
  6
CONTINUOUS
  0
LAYER
  2
BLUE1
  70
0
  62
178
  6
CONTINUOUS
  0
LAYER
  2
GREEN1
  70
0
  62
98
  6
CONTINUOUS
  0
LAYER
  2
CYAN1
  70
0
  62
138
  6
CONTINUOUS
  0
LAYER
  2
RED1
  70
0
  62
18
  6
CONTINUOUS
  0
LAYER
  2
MAGENTA1
  70
0
  62
228
  6
CONTINUOUS
  0
LAYER
  2
BROWN1
  70
0
  62
58
  6
CONTINUOUS
  0
LAYER
  2
BLUE2
  70
0
  62
5
  6
CONTINUOUS
  0
LAYER
  2
GREEN2
  70
0
  62
3
  6
CONTINUOUS
  0
LAYER
  2
CYAN2
  70
0
  62
4
  6
CONTINUOUS
  0
LAYER
  2
RED2
  70
0
  62
1
  6
CONTINUOUS
  0
LAYER
  2
MAGENTA2
  70
0
  62
6
  6
CONTINUOUS
  0
LAYER
  2
BROWN2
  70
0
  62
54
  6
CONTINUOUS
  0
LAYER
  2
BLUE3
  70
0
  62
171
  6
CONTINUOUS
  0
LAYER
  2
GREEN3
  70
0
  62
91
  6
CONTINUOUS
  0
LAYER
  2
CYAN3
  70
0
  62
131
  6
CONTINUOUS
  0
LAYER
  2
RED3
  70
0
  62
11
  6
CONTINUOUS
  0
LAYER
  2
MAGENTA3
  70
0
  62
221
  6
CONTINUOUS
  0
LAYER
  2
YELLOW3
  70
0
  62
2
  6
CONTINUOUS
  0
LAYER
  2
BLUE4
  70
0
  62
5
  6
CONTINUOUS
  0
LAYER
  2
GREEN4
  70
0
  62
3
  6
CONTINUOUS
  0
LAYER
  2
CYAN4
  70
0
  62
4
  6
CONTINUOUS
  0
LAYER
  2
RED4
  70
0
  62
1
  6
CONTINUOUS
  0
LAYER
  2
MAGENTA4
  70
0
  62
6
  6
CONTINUOUS
  0
LAYER
  2
YELLOW4
  70
0
  62
2
  6
CONTINUOUS
  0
ENDTAB
  0
ENDSEC
  0
SECTION
  2
ENTITIES
0
LINE
8
BLACK
6
CONTINUOUS
10
221.722
20
-106.593
11
221.733
21
-106.594
0
LINE
8
BLACK
6
CONTINUOUS
10
221.733
20
-106.594
11
221.747
21
-106.598
0
LINE
8
BLACK
6
CONTINUOUS
10
221.747
20
-106.598
11
221.76
21
-106.605
0
LINE
8
BLACK
6
CONTINUOUS
10
221.76
20
-106.605
11
221.771
21
-106.614
0
LINE
8
BLACK
6
CONTINUOUS
10
221.771
20
-106.614
11
221.781
21
-106.626
0
LINE
8
BLACK
6
CONTINUOUS
10
221.781
20
-106.626
11
221.788
21
-106.639
0
LINE
8
BLACK
6
CONTINUOUS
10
221.788
20
-106.639
11
221.792
21
-106.653
0
LINE
8
BLACK
6
CONTINUOUS
10
221.792
20
-106.653
11
221.793
21
-106.668
0
LINE
8
BLACK
6
CONTINUOUS
10
221.793
20
-106.668
11
221.793
21
-106.671
0
LINE
8
BLACK
6
CONTINUOUS
10
221.793
20
-106.671
11
221.793
21
-109.133
0
LINE
8
BLACK
6
CONTINUOUS
10
221.793
20
-109.133
11
226.794
21
-109.133
0
LINE
8
BLACK
6
CONTINUOUS
10
226.794
20
-109.133
11
226.798
21
-109.132
0
LINE
8
BLACK
6
CONTINUOUS
10
226.798
20
-109.132
11
226.802
21
-109.133
0
LINE
8
BLACK
6
CONTINUOUS
10
226.802
20
-109.133
11
226.813
21
-109.134
0
LINE
8
BLACK
6
CONTINUOUS
10
226.813
20
-109.134
11
226.827
21
-109.138
0
LINE
8
BLACK
6
CONTINUOUS
10
226.827
20
-109.138
11
226.84
21
-109.145
0
LINE
8
BLACK
6
CONTINUOUS
10
226.84
20
-109.145
11
226.851
21
-109.154
0
LINE
8
BLACK
6
CONTINUOUS
10
226.851
20
-109.154
11
226.861
21
-109.166
0
LINE
8
BLACK
6
CONTINUOUS
10
226.861
20
-109.166
11
226.868
21
-109.179
0
LINE
8
BLACK
6
CONTINUOUS
10
226.868
20
-109.179
11
226.872
21
-109.193
0
LINE
8
BLACK
6
CONTINUOUS
10
226.872
20
-109.193
11
226.873
21
-109.208
0
LINE
8
BLACK
6
CONTINUOUS
10
226.873
20
-109.208
11
226.873
21
-109.211
0
LINE
8
BLACK
6
CONTINUOUS
10
226.873
20
-109.211
11
226.873
21
-139.691
0
LINE
8
BLACK
6
CONTINUOUS
10
226.873
20
-139.691
11
226.872
21
-139.702
0
LINE
8
BLACK
6
CONTINUOUS
10
226.872
20
-139.702
11
226.868
21
-139.716
0
LINE
8
BLACK
6
CONTINUOUS
10
226.868
20
-139.716
11
226.861
21
-139.729
0
LINE
8
BLACK
6
CONTINUOUS
10
226.861
20
-139.729
11
226.851
21
-139.741
0
LINE
8
BLACK
6
CONTINUOUS
10
226.851
20
-139.741
11
226.84
21
-139.75
0
LINE
8
BLACK
6
CONTINUOUS
10
226.84
20
-139.75
11
226.827
21
-139.757
0
LINE
8
BLACK
6
CONTINUOUS
10
226.827
20
-139.757
11
226.813
21
-139.761
0
LINE
8
BLACK
6
CONTINUOUS
10
226.813
20
-139.761
11
226.798
21
-139.763
0
LINE
8
BLACK
6
CONTINUOUS
10
226.798
20
-139.763
11
226.783
21
-139.761
0
LINE
8
BLACK
6
CONTINUOUS
10
226.783
20
-139.761
11
226.769
21
-139.757
0
LINE
8
BLACK
6
CONTINUOUS
10
226.769
20
-139.757
11
226.756
21
-139.75
0
LINE
8
BLACK
6
CONTINUOUS
10
226.756
20
-139.75
11
226.745
21
-139.741
0
LINE
8
BLACK
6
CONTINUOUS
10
226.745
20
-139.741
11
226.735
21
-139.729
0
LINE
8
BLACK
6
CONTINUOUS
10
226.735
20
-139.729
11
226.728
21
-139.716
0
LINE
8
BLACK
6
CONTINUOUS
10
226.728
20
-139.716
11
226.724
21
-139.702
0
LINE
8
BLACK
6
CONTINUOUS
10
226.724
20
-139.702
11
226.723
21
-139.691
0
LINE
8
BLACK
6
CONTINUOUS
10
226.723
20
-139.691
11
226.723
21
-109.283
0
LINE
8
BLACK
6
CONTINUOUS
10
226.723
20
-109.283
11
221.722
21
-109.283
0
LINE
8
BLACK
6
CONTINUOUS
10
221.722
20
-109.283
11
221.718
21
-109.283
0
LINE
8
BLACK
6
CONTINUOUS
10
221.718
20
-109.283
11
221.714
21
-109.283
0
LINE
8
BLACK
6
CONTINUOUS
10
221.714
20
-109.283
11
221.703
21
-109.281
0
LINE
8
BLACK
6
CONTINUOUS
10
221.703
20
-109.281
11
221.689
21
-109.277
0
LINE
8
BLACK
6
CONTINUOUS
10
221.689
20
-109.277
11
221.676
21
-109.27
0
LINE
8
BLACK
6
CONTINUOUS
10
221.676
20
-109.27
11
221.665
21
-109.261
0
LINE
8
BLACK
6
CONTINUOUS
10
221.665
20
-109.261
11
221.655
21
-109.249
0
LINE
8
BLACK
6
CONTINUOUS
10
221.655
20
-109.249
11
221.648
21
-109.236
0
LINE
8
BLACK
6
CONTINUOUS
10
221.648
20
-109.236
11
221.644
21
-109.222
0
LINE
8
BLACK
6
CONTINUOUS
10
221.644
20
-109.222
11
221.643
21
-109.208
0
LINE
8
BLACK
6
CONTINUOUS
10
221.643
20
-109.208
11
221.643
21
-109.204
0
LINE
8
BLACK
6
CONTINUOUS
10
221.643
20
-109.204
11
221.643
21
-106.743
0
LINE
8
BLACK
6
CONTINUOUS
10
221.643
20
-106.743
11
214.173
21
-106.743
0
LINE
8
BLACK
6
CONTINUOUS
10
214.173
20
-106.743
11
214.173
21
-109.204
0
LINE
8
BLACK
6
CONTINUOUS
10
214.173
20
-109.204
11
214.173
21
-109.208
0
LINE
8
BLACK
6
CONTINUOUS
10
214.173
20
-109.208
11
214.172
21
-109.222
0
LINE
8
BLACK
6
CONTINUOUS
10
214.172
20
-109.222
11
214.168
21
-109.236
0
LINE
8
BLACK
6
CONTINUOUS
10
214.168
20
-109.236
11
214.161
21
-109.249
0
LINE
8
BLACK
6
CONTINUOUS
10
214.161
20
-109.249
11
214.151
21
-109.261
0
LINE
8
BLACK
6
CONTINUOUS
10
214.151
20
-109.261
11
214.14
21
-109.27
0
LINE
8
BLACK
6
CONTINUOUS
10
214.14
20
-109.27
11
214.127
21
-109.277
0
LINE
8
BLACK
6
CONTINUOUS
10
214.127
20
-109.277
11
214.113
21
-109.281
0
LINE
8
BLACK
6
CONTINUOUS
10
214.113
20
-109.281
11
214.102
21
-109.283
0
LINE
8
BLACK
6
CONTINUOUS
10
214.102
20
-109.283
11
214.098
21
-109.283
0
LINE
8
BLACK
6
CONTINUOUS
10
214.098
20
-109.283
11
214.094
21
-109.283
0
LINE
8
BLACK
6
CONTINUOUS
10
214.094
20
-109.283
11
209.093
21
-109.283
0
LINE
8
BLACK
6
CONTINUOUS
10
209.093
20
-109.283
11
209.093
21
-139.691
0
LINE
8
BLACK
6
CONTINUOUS
10
209.093
20
-139.691
11
209.092
21
-139.702
0
LINE
8
BLACK
6
CONTINUOUS
10
209.092
20
-139.702
11
209.088
21
-139.716
0
LINE
8
BLACK
6
CONTINUOUS
10
209.088
20
-139.716
11
209.081
21
-139.729
0
LINE
8
BLACK
6
CONTINUOUS
10
209.081
20
-139.729
11
209.071
21
-139.741
0
LINE
8
BLACK
6
CONTINUOUS
10
209.071
20
-139.741
11
209.06
21
-139.75
0
LINE
8
BLACK
6
CONTINUOUS
10
209.06
20
-139.75
11
209.047
21
-139.757
0
LINE
8
BLACK
6
CONTINUOUS
10
209.047
20
-139.757
11
209.033
21
-139.761
0
LINE
8
BLACK
6
CONTINUOUS
10
209.033
20
-139.761
11
209.018
21
-139.763
0
LINE
8
BLACK
6
CONTINUOUS
10
209.018
20
-139.763
11
209.003
21
-139.761
0
LINE
8
BLACK
6
CONTINUOUS
10
209.003
20
-139.761
11
208.989
21
-139.757
0
LINE
8
BLACK
6
CONTINUOUS
10
208.989
20
-139.757
11
208.976
21
-139.75
0
LINE
8
BLACK
6
CONTINUOUS
10
208.976
20
-139.75
11
208.965
21
-139.741
0
LINE
8
BLACK
6
CONTINUOUS
10
208.965
20
-139.741
11
208.955
21
-139.729
0
LINE
8
BLACK
6
CONTINUOUS
10
208.955
20
-139.729
11
208.948
21
-139.716
0
LINE
8
BLACK
6
CONTINUOUS
10
208.948
20
-139.716
11
208.944
21
-139.702
0
LINE
8
BLACK
6
CONTINUOUS
10
208.944
20
-139.702
11
208.943
21
-139.691
0
LINE
8
BLACK
6
CONTINUOUS
10
208.943
20
-139.691
11
208.943
21
-109.211
0
LINE
8
BLACK
6
CONTINUOUS
10
208.943
20
-109.211
11
208.943
21
-109.208
0
LINE
8
BLACK
6
CONTINUOUS
10
208.943
20
-109.208
11
208.944
21
-109.193
0
LINE
8
BLACK
6
CONTINUOUS
10
208.944
20
-109.193
11
208.948
21
-109.179
0
LINE
8
BLACK
6
CONTINUOUS
10
208.948
20
-109.179
11
208.955
21
-109.166
0
LINE
8
BLACK
6
CONTINUOUS
10
208.955
20
-109.166
11
208.965
21
-109.154
0
LINE
8
BLACK
6
CONTINUOUS
10
208.965
20
-109.154
11
208.976
21
-109.145
0
LINE
8
BLACK
6
CONTINUOUS
10
208.976
20
-109.145
11
208.989
21
-109.138
0
LINE
8
BLACK
6
CONTINUOUS
10
208.989
20
-109.138
11
209.003
21
-109.134
0
LINE
8
BLACK
6
CONTINUOUS
10
209.003
20
-109.134
11
209.014
21
-109.133
0
LINE
8
BLACK
6
CONTINUOUS
10
209.014
20
-109.133
11
209.018
21
-109.132
0
LINE
8
BLACK
6
CONTINUOUS
10
209.018
20
-109.132
11
209.022
21
-109.133
0
LINE
8
BLACK
6
CONTINUOUS
10
209.022
20
-109.133
11
214.023
21
-109.133
0
LINE
8
BLACK
6
CONTINUOUS
10
214.023
20
-109.133
11
214.023
21
-106.671
0
LINE
8
BLACK
6
CONTINUOUS
10
214.023
20
-106.671
11
214.023
21
-106.668
0
LINE
8
BLACK
6
CONTINUOUS
10
214.023
20
-106.668
11
214.024
21
-106.653
0
LINE
8
BLACK
6
CONTINUOUS
10
214.024
20
-106.653
11
214.028
21
-106.639
0
LINE
8
BLACK
6
CONTINUOUS
10
214.028
20
-106.639
11
214.035
21
-106.626
0
LINE
8
BLACK
6
CONTINUOUS
10
214.035
20
-106.626
11
214.045
21
-106.614
0
LINE
8
BLACK
6
CONTINUOUS
10
214.045
20
-106.614
11
214.056
21
-106.605
0
LINE
8
BLACK
6
CONTINUOUS
10
214.056
20
-106.605
11
214.069
21
-106.598
0
LINE
8
BLACK
6
CONTINUOUS
10
214.069
20
-106.598
11
214.083
21
-106.594
0
LINE
8
BLACK
6
CONTINUOUS
10
214.083
20
-106.594
11
214.094
21
-106.593
0
LINE
8
BLACK
6
CONTINUOUS
10
214.094
20
-106.593
11
214.098
21
-106.592
0
LINE
8
BLACK
6
CONTINUOUS
10
214.098
20
-106.592
11
214.102
21
-106.593
0
LINE
8
BLACK
6
CONTINUOUS
10
214.102
20
-106.593
11
221.714
21
-106.593
0
LINE
8
BLACK
6
CONTINUOUS
10
221.714
20
-106.593
11
221.718
21
-106.592
0
LINE
8
BLACK
6
CONTINUOUS
10
221.718
20
-106.592
11
221.722
21
-106.593
  0
ENDSEC
  0
EOF
