  0
SECTION
  2
HEADER
  9
$ANGBASE
  50
0.0
  9
$ANGDIR
  70
  1
  9
$MEASUREMENT
  70
0
  0
ENDSEC
  0
SECTION
  2
TABLES
  0
TABLE
  2
LTYPE
  70
4
  0
LTYPE
  5
40F
  2
CONTINUOUS
  70
0
  3
Solid line
  72
65
  73
0
  40
0.0
  0
LTYPE
  5
410
  2
DASHDOT
 70
0
  3
Dash Dot ____ _ ____ _
 72
65
 73
4
 40
2.0
 49
1.25
 49
-0.25
 49
0.25
 49
-0.25
  0
LTYPE
  5
411
  2
DASHED
 70
0
  3
Dashed __ __ __ __ __
 72
65
 73
2
 40
0.75
 49
0.5
 49
-0.25
  0
LTYPE
  5
43B
  2
DOTTED
 70
0
  3
Dotted .  .  .  .
 72
65
 73
2
 40
0.2
 49
0.0
 49
-0.2
  0
ENDTAB
  0
TABLE
  2
STYLE
  70
4
  0
STYLE
  2
KICAD
  70
0
  40
0
  41
1
  42
1
  50
0
  71
0
  3
isocp.shx
  0
STYLE
  2
KICADB
  70
0
  40
0
  41
1
  42
1
  50
0
  71
0
  3
isocp.shx
  0
STYLE
  2
KICADI
  70
0
  40
0
  41
1
  42
1
  50
15
  71
0
  3
isocp.shx
  0
STYLE
  2
KICADBI
  70
0
  40
0
  41
1
  42
1
  50
15
  71
0
  3
isocp.shx
  0
ENDTAB
  0
TABLE
  2
LAYER
  70
30
  0
LAYER
  2
BLACK
  70
0
  62
7
  6
CONTINUOUS
  0
LAYER
  2
GRAY1
  70
0
  62
251
  6
CONTINUOUS
  0
LAYER
  2
GRAY2
  70
0
  62
8
  6
CONTINUOUS
  0
LAYER
  2
GRAY3
  70
0
  62
9
  6
CONTINUOUS
  0
LAYER
  2
WHITE
  70
0
  62
7
  6
CONTINUOUS
  0
LAYER
  2
LYELLOW
  70
0
  62
51
  6
CONTINUOUS
  0
LAYER
  2
BLUE1
  70
0
  62
178
  6
CONTINUOUS
  0
LAYER
  2
GREEN1
  70
0
  62
98
  6
CONTINUOUS
  0
LAYER
  2
CYAN1
  70
0
  62
138
  6
CONTINUOUS
  0
LAYER
  2
RED1
  70
0
  62
18
  6
CONTINUOUS
  0
LAYER
  2
MAGENTA1
  70
0
  62
228
  6
CONTINUOUS
  0
LAYER
  2
BROWN1
  70
0
  62
58
  6
CONTINUOUS
  0
LAYER
  2
BLUE2
  70
0
  62
5
  6
CONTINUOUS
  0
LAYER
  2
GREEN2
  70
0
  62
3
  6
CONTINUOUS
  0
LAYER
  2
CYAN2
  70
0
  62
4
  6
CONTINUOUS
  0
LAYER
  2
RED2
  70
0
  62
1
  6
CONTINUOUS
  0
LAYER
  2
MAGENTA2
  70
0
  62
6
  6
CONTINUOUS
  0
LAYER
  2
BROWN2
  70
0
  62
54
  6
CONTINUOUS
  0
LAYER
  2
BLUE3
  70
0
  62
171
  6
CONTINUOUS
  0
LAYER
  2
GREEN3
  70
0
  62
91
  6
CONTINUOUS
  0
LAYER
  2
CYAN3
  70
0
  62
131
  6
CONTINUOUS
  0
LAYER
  2
RED3
  70
0
  62
11
  6
CONTINUOUS
  0
LAYER
  2
MAGENTA3
  70
0
  62
221
  6
CONTINUOUS
  0
LAYER
  2
YELLOW3
  70
0
  62
2
  6
CONTINUOUS
  0
LAYER
  2
BLUE4
  70
0
  62
5
  6
CONTINUOUS
  0
LAYER
  2
GREEN4
  70
0
  62
3
  6
CONTINUOUS
  0
LAYER
  2
CYAN4
  70
0
  62
4
  6
CONTINUOUS
  0
LAYER
  2
RED4
  70
0
  62
1
  6
CONTINUOUS
  0
LAYER
  2
MAGENTA4
  70
0
  62
6
  6
CONTINUOUS
  0
LAYER
  2
YELLOW4
  70
0
  62
2
  6
CONTINUOUS
  0
ENDTAB
  0
ENDSEC
  0
SECTION
  2
ENTITIES
0
LINE
8
BLACK
6
CONTINUOUS
10
116.306
20
-83.3019
11
155.365
21
-87.3821
0
LINE
8
BLACK
6
CONTINUOUS
10
155.365
20
-87.3821
11
155.367
21
-87.3822
0
LINE
8
BLACK
6
CONTINUOUS
10
155.367
20
-87.3822
11
155.368
21
-87.3826
0
LINE
8
BLACK
6
CONTINUOUS
10
155.368
20
-87.3826
11
155.37
21
-87.383
0
LINE
8
BLACK
6
CONTINUOUS
10
155.37
20
-87.383
11
155.372
21
-87.3837
0
LINE
8
BLACK
6
CONTINUOUS
10
155.372
20
-87.3837
11
173.268
21
-93.8975
0
LINE
8
BLACK
6
CONTINUOUS
10
173.268
20
-93.8975
11
262.543
21
-93.8994
0
LINE
8
BLACK
6
CONTINUOUS
10
262.543
20
-93.8994
11
280.44
21
-87.3856
0
LINE
8
BLACK
6
CONTINUOUS
10
280.44
20
-87.3856
11
280.441
21
-87.3849
0
LINE
8
BLACK
6
CONTINUOUS
10
280.441
20
-87.3849
11
280.443
21
-87.3846
0
LINE
8
BLACK
6
CONTINUOUS
10
280.443
20
-87.3846
11
280.445
21
-87.3841
0
LINE
8
BLACK
6
CONTINUOUS
10
280.445
20
-87.3841
11
280.447
21
-87.384
0
LINE
8
BLACK
6
CONTINUOUS
10
280.447
20
-87.384
11
319.505
21
-83.3038
0
LINE
8
BLACK
6
CONTINUOUS
10
319.505
20
-83.3038
11
319.507
21
-83.3035
0
LINE
8
BLACK
6
CONTINUOUS
10
319.507
20
-83.3035
11
319.509
21
-83.3035
0
LINE
8
BLACK
6
CONTINUOUS
10
319.509
20
-83.3035
11
319.511
21
-83.3035
0
LINE
8
BLACK
6
CONTINUOUS
10
319.511
20
-83.3035
11
319.513
21
-83.3038
0
LINE
8
BLACK
6
CONTINUOUS
10
319.513
20
-83.3038
11
340.668
21
-85.7385
0
LINE
8
BLACK
6
CONTINUOUS
10
340.668
20
-85.7385
11
340.669
21
-85.7385
0
LINE
8
BLACK
6
CONTINUOUS
10
340.669
20
-85.7385
11
340.671
21
-85.7388
0
LINE
8
BLACK
6
CONTINUOUS
10
340.671
20
-85.7388
11
340.672
21
-85.7389
0
LINE
8
BLACK
6
CONTINUOUS
10
340.672
20
-85.7389
11
340.672
21
-85.739
0
LINE
8
BLACK
6
CONTINUOUS
10
340.672
20
-85.739
11
340.674
21
-85.7392
0
LINE
8
BLACK
6
CONTINUOUS
10
340.674
20
-85.7392
11
340.675
21
-85.7395
0
LINE
8
BLACK
6
CONTINUOUS
10
340.675
20
-85.7395
11
340.675
21
-85.7397
0
LINE
8
BLACK
6
CONTINUOUS
10
340.675
20
-85.7397
11
340.677
21
-85.7403
0
LINE
8
BLACK
6
CONTINUOUS
10
340.677
20
-85.7403
11
340.678
21
-85.7409
0
LINE
8
BLACK
6
CONTINUOUS
10
340.678
20
-85.7409
11
340.679
21
-85.7413
0
LINE
8
BLACK
6
CONTINUOUS
10
340.679
20
-85.7413
11
340.68
21
-85.7417
0
LINE
8
BLACK
6
CONTINUOUS
10
340.68
20
-85.7417
11
340.681
21
-85.7426
0
LINE
8
BLACK
6
CONTINUOUS
10
340.681
20
-85.7426
11
340.683
21
-85.7434
0
LINE
8
BLACK
6
CONTINUOUS
10
340.683
20
-85.7434
11
340.683
21
-85.744
0
LINE
8
BLACK
6
CONTINUOUS
10
340.683
20
-85.744
11
340.684
21
-85.7445
0
LINE
8
BLACK
6
CONTINUOUS
10
340.684
20
-85.7445
11
340.685
21
-85.7456
0
LINE
8
BLACK
6
CONTINUOUS
10
340.685
20
-85.7456
11
340.686
21
-85.7467
0
LINE
8
BLACK
6
CONTINUOUS
10
340.686
20
-85.7467
11
340.687
21
-85.7474
0
LINE
8
BLACK
6
CONTINUOUS
10
340.687
20
-85.7474
11
340.687
21
-85.748
0
LINE
8
BLACK
6
CONTINUOUS
10
340.687
20
-85.748
11
340.688
21
-85.7494
0
LINE
8
BLACK
6
CONTINUOUS
10
340.688
20
-85.7494
11
340.689
21
-85.7506
0
LINE
8
BLACK
6
CONTINUOUS
10
340.689
20
-85.7506
11
340.69
21
-85.7514
0
LINE
8
BLACK
6
CONTINUOUS
10
340.69
20
-85.7514
11
340.69
21
-85.7522
0
LINE
8
BLACK
6
CONTINUOUS
10
340.69
20
-85.7522
11
340.691
21
-85.7536
0
LINE
8
BLACK
6
CONTINUOUS
10
340.691
20
-85.7536
11
340.691
21
-85.7539
0
LINE
8
BLACK
6
CONTINUOUS
10
340.691
20
-85.7539
11
340.691
21
-85.7547
0
LINE
8
BLACK
6
CONTINUOUS
10
340.691
20
-85.7547
11
340.692
21
-85.7567
0
LINE
8
BLACK
6
CONTINUOUS
10
340.692
20
-85.7567
11
340.692
21
-85.7571
0
LINE
8
BLACK
6
CONTINUOUS
10
340.692
20
-85.7571
11
366.753
21
-157.359
0
LINE
8
BLACK
6
CONTINUOUS
10
366.753
20
-157.359
11
366.753
21
-157.36
0
LINE
8
BLACK
6
CONTINUOUS
10
366.753
20
-157.36
11
366.754
21
-157.361
0
LINE
8
BLACK
6
CONTINUOUS
10
366.754
20
-157.361
11
366.754
21
-157.361
0
LINE
8
BLACK
6
CONTINUOUS
10
366.754
20
-157.361
11
366.754
21
-157.364
0
LINE
8
BLACK
6
CONTINUOUS
10
366.754
20
-157.364
11
366.755
21
-157.369
0
LINE
8
BLACK
6
CONTINUOUS
10
366.755
20
-157.369
11
366.754
21
-157.374
0
LINE
8
BLACK
6
CONTINUOUS
10
366.754
20
-157.374
11
366.752
21
-157.379
0
LINE
8
BLACK
6
CONTINUOUS
10
366.752
20
-157.379
11
366.75
21
-157.383
0
LINE
8
BLACK
6
CONTINUOUS
10
366.75
20
-157.383
11
366.747
21
-157.387
0
LINE
8
BLACK
6
CONTINUOUS
10
366.747
20
-157.387
11
366.743
21
-157.39
0
LINE
8
BLACK
6
CONTINUOUS
10
366.743
20
-157.39
11
366.738
21
-157.392
0
LINE
8
BLACK
6
CONTINUOUS
10
366.738
20
-157.392
11
366.737
21
-157.392
0
LINE
8
BLACK
6
CONTINUOUS
10
366.737
20
-157.392
11
348.839
21
-163.906
0
LINE
8
BLACK
6
CONTINUOUS
10
348.839
20
-163.906
11
348.839
21
-163.907
0
LINE
8
BLACK
6
CONTINUOUS
10
348.839
20
-163.907
11
348.837
21
-163.907
0
LINE
8
BLACK
6
CONTINUOUS
10
348.837
20
-163.907
11
348.836
21
-163.908
0
LINE
8
BLACK
6
CONTINUOUS
10
348.836
20
-163.908
11
348.836
21
-163.908
0
LINE
8
BLACK
6
CONTINUOUS
10
348.836
20
-163.908
11
348.835
21
-163.908
0
LINE
8
BLACK
6
CONTINUOUS
10
348.835
20
-163.908
11
348.834
21
-163.908
0
LINE
8
BLACK
6
CONTINUOUS
10
348.834
20
-163.908
11
348.832
21
-163.909
0
LINE
8
BLACK
6
CONTINUOUS
10
348.832
20
-163.909
11
348.832
21
-163.909
0
LINE
8
BLACK
6
CONTINUOUS
10
348.832
20
-163.909
11
217.914
21
-193.333
0
LINE
8
BLACK
6
CONTINUOUS
10
217.914
20
-193.333
11
217.912
21
-193.334
0
LINE
8
BLACK
6
CONTINUOUS
10
217.912
20
-193.334
11
217.91
21
-193.334
0
LINE
8
BLACK
6
CONTINUOUS
10
217.91
20
-193.334
11
217.909
21
-193.334
0
LINE
8
BLACK
6
CONTINUOUS
10
217.909
20
-193.334
11
217.908
21
-193.334
0
LINE
8
BLACK
6
CONTINUOUS
10
217.908
20
-193.334
11
217.907
21
-193.334
0
LINE
8
BLACK
6
CONTINUOUS
10
217.907
20
-193.334
11
217.906
21
-193.334
0
LINE
8
BLACK
6
CONTINUOUS
10
217.906
20
-193.334
11
217.904
21
-193.334
0
LINE
8
BLACK
6
CONTINUOUS
10
217.904
20
-193.334
11
217.902
21
-193.333
0
LINE
8
BLACK
6
CONTINUOUS
10
217.902
20
-193.333
11
86.9796
21
-163.907
0
LINE
8
BLACK
6
CONTINUOUS
10
86.9796
20
-163.907
11
86.9792
21
-163.907
0
LINE
8
BLACK
6
CONTINUOUS
10
86.9792
20
-163.907
11
86.9772
21
-163.906
0
LINE
8
BLACK
6
CONTINUOUS
10
86.9772
20
-163.906
11
86.9764
21
-163.906
0
LINE
8
BLACK
6
CONTINUOUS
10
86.9764
20
-163.906
11
86.976
21
-163.906
0
LINE
8
BLACK
6
CONTINUOUS
10
86.976
20
-163.906
11
86.9756
21
-163.906
0
LINE
8
BLACK
6
CONTINUOUS
10
86.9756
20
-163.906
11
86.9748
21
-163.905
0
LINE
8
BLACK
6
CONTINUOUS
10
86.9748
20
-163.905
11
86.9728
21
-163.905
0
LINE
8
BLACK
6
CONTINUOUS
10
86.9728
20
-163.905
11
86.9725
21
-163.905
0
LINE
8
BLACK
6
CONTINUOUS
10
86.9725
20
-163.905
11
69.0745
21
-157.39
0
LINE
8
BLACK
6
CONTINUOUS
10
69.0745
20
-157.39
11
69.0733
21
-157.39
0
LINE
8
BLACK
6
CONTINUOUS
10
69.0733
20
-157.39
11
69.0688
21
-157.388
0
LINE
8
BLACK
6
CONTINUOUS
10
69.0688
20
-157.388
11
69.0649
21
-157.385
0
LINE
8
BLACK
6
CONTINUOUS
10
69.0649
20
-157.385
11
69.0616
21
-157.381
0
LINE
8
BLACK
6
CONTINUOUS
10
69.0616
20
-157.381
11
69.0591
21
-157.377
0
LINE
8
BLACK
6
CONTINUOUS
10
69.0591
20
-157.377
11
69.0575
21
-157.372
0
LINE
8
BLACK
6
CONTINUOUS
10
69.0575
20
-157.372
11
69.0568
21
-157.367
0
LINE
8
BLACK
6
CONTINUOUS
10
69.0568
20
-157.367
11
69.0571
21
-157.362
0
LINE
8
BLACK
6
CONTINUOUS
10
69.0571
20
-157.362
11
69.0578
21
-157.36
0
LINE
8
BLACK
6
CONTINUOUS
10
69.0578
20
-157.36
11
69.0583
21
-157.358
0
LINE
8
BLACK
6
CONTINUOUS
10
69.0583
20
-157.358
11
69.0588
21
-157.357
0
LINE
8
BLACK
6
CONTINUOUS
10
69.0588
20
-157.357
11
95.1196
21
-85.7551
0
LINE
8
BLACK
6
CONTINUOUS
10
95.1196
20
-85.7551
11
95.1197
21
-85.7548
0
LINE
8
BLACK
6
CONTINUOUS
10
95.1197
20
-85.7548
11
95.1204
21
-85.7529
0
LINE
8
BLACK
6
CONTINUOUS
10
95.1204
20
-85.7529
11
95.1207
21
-85.752
0
LINE
8
BLACK
6
CONTINUOUS
10
95.1207
20
-85.752
11
95.1209
21
-85.7517
0
LINE
8
BLACK
6
CONTINUOUS
10
95.1209
20
-85.7517
11
95.1215
21
-85.7502
0
LINE
8
BLACK
6
CONTINUOUS
10
95.1215
20
-85.7502
11
95.122
21
-85.7495
0
LINE
8
BLACK
6
CONTINUOUS
10
95.122
20
-85.7495
11
95.1223
21
-85.7487
0
LINE
8
BLACK
6
CONTINUOUS
10
95.1223
20
-85.7487
11
95.1233
21
-85.7474
0
LINE
8
BLACK
6
CONTINUOUS
10
95.1233
20
-85.7474
11
95.1241
21
-85.7461
0
LINE
8
BLACK
6
CONTINUOUS
10
95.1241
20
-85.7461
11
95.1248
21
-85.7455
0
LINE
8
BLACK
6
CONTINUOUS
10
95.1248
20
-85.7455
11
95.1253
21
-85.7447
0
LINE
8
BLACK
6
CONTINUOUS
10
95.1253
20
-85.7447
11
95.1265
21
-85.7437
0
LINE
8
BLACK
6
CONTINUOUS
10
95.1265
20
-85.7437
11
95.1276
21
-85.7426
0
LINE
8
BLACK
6
CONTINUOUS
10
95.1276
20
-85.7426
11
95.1283
21
-85.7421
0
LINE
8
BLACK
6
CONTINUOUS
10
95.1283
20
-85.7421
11
95.129
21
-85.7415
0
LINE
8
BLACK
6
CONTINUOUS
10
95.129
20
-85.7415
11
95.1303
21
-85.7406
0
LINE
8
BLACK
6
CONTINUOUS
10
95.1303
20
-85.7406
11
95.1316
21
-85.7398
0
LINE
8
BLACK
6
CONTINUOUS
10
95.1316
20
-85.7398
11
95.1324
21
-85.7394
0
LINE
8
BLACK
6
CONTINUOUS
10
95.1324
20
-85.7394
11
95.1332
21
-85.7389
0
LINE
8
BLACK
6
CONTINUOUS
10
95.1332
20
-85.7389
11
95.1347
21
-85.7384
0
LINE
8
BLACK
6
CONTINUOUS
10
95.1347
20
-85.7384
11
95.1361
21
-85.7378
0
LINE
8
BLACK
6
CONTINUOUS
10
95.1361
20
-85.7378
11
95.137
21
-85.7376
0
LINE
8
BLACK
6
CONTINUOUS
10
95.137
20
-85.7376
11
95.1378
21
-85.7373
0
LINE
8
BLACK
6
CONTINUOUS
10
95.1378
20
-85.7373
11
95.1394
21
-85.7371
0
LINE
8
BLACK
6
CONTINUOUS
10
95.1394
20
-85.7371
11
95.1397
21
-85.737
0
LINE
8
BLACK
6
CONTINUOUS
10
95.1397
20
-85.737
11
95.1406
21
-85.7369
0
LINE
8
BLACK
6
CONTINUOUS
10
95.1406
20
-85.7369
11
95.1427
21
-85.7366
0
LINE
8
BLACK
6
CONTINUOUS
10
95.1427
20
-85.7366
11
95.1431
21
-85.7366
0
LINE
8
BLACK
6
CONTINUOUS
10
95.1431
20
-85.7366
11
116.299
21
-83.3019
0
LINE
8
BLACK
6
CONTINUOUS
10
116.299
20
-83.3019
11
116.3
21
-83.3016
0
LINE
8
BLACK
6
CONTINUOUS
10
116.3
20
-83.3016
11
116.303
21
-83.3016
0
LINE
8
BLACK
6
CONTINUOUS
10
116.303
20
-83.3016
11
116.305
21
-83.3016
0
LINE
8
BLACK
6
CONTINUOUS
10
116.305
20
-83.3016
11
116.306
21
-83.3019
0
LINE
8
BLACK
6
CONTINUOUS
10
95.162
20
-85.7848
11
69.1139
21
-157.351
0
LINE
8
BLACK
6
CONTINUOUS
10
69.1139
20
-157.351
11
86.9901
21
-163.858
0
LINE
8
BLACK
6
CONTINUOUS
10
86.9901
20
-163.858
11
217.908
21
-193.284
0
LINE
8
BLACK
6
CONTINUOUS
10
217.908
20
-193.284
11
348.821
21
-163.86
0
LINE
8
BLACK
6
CONTINUOUS
10
348.821
20
-163.86
11
366.698
21
-157.353
0
LINE
8
BLACK
6
CONTINUOUS
10
366.698
20
-157.353
11
340.649
21
-85.7867
0
LINE
8
BLACK
6
CONTINUOUS
10
340.649
20
-85.7867
11
319.509
21
-83.3537
0
LINE
8
BLACK
6
CONTINUOUS
10
319.509
20
-83.3537
11
280.454
21
-87.4335
0
LINE
8
BLACK
6
CONTINUOUS
10
280.454
20
-87.4335
11
262.558
21
-93.9473
0
LINE
8
BLACK
6
CONTINUOUS
10
262.558
20
-93.9473
11
262.557
21
-93.9476
0
LINE
8
BLACK
6
CONTINUOUS
10
262.557
20
-93.9476
11
262.556
21
-93.9481
0
LINE
8
BLACK
6
CONTINUOUS
10
262.556
20
-93.9481
11
262.555
21
-93.9483
0
LINE
8
BLACK
6
CONTINUOUS
10
262.555
20
-93.9483
11
262.554
21
-93.9485
0
LINE
8
BLACK
6
CONTINUOUS
10
262.554
20
-93.9485
11
262.553
21
-93.9491
0
LINE
8
BLACK
6
CONTINUOUS
10
262.553
20
-93.9491
11
262.552
21
-93.9491
0
LINE
8
BLACK
6
CONTINUOUS
10
262.552
20
-93.9491
11
262.551
21
-93.9492
0
LINE
8
BLACK
6
CONTINUOUS
10
262.551
20
-93.9492
11
262.55
21
-93.9493
0
LINE
8
BLACK
6
CONTINUOUS
10
262.55
20
-93.9493
11
262.549
21
-93.9494
0
LINE
8
BLACK
6
CONTINUOUS
10
262.549
20
-93.9494
11
262.548
21
-93.9494
0
LINE
8
BLACK
6
CONTINUOUS
10
262.548
20
-93.9494
11
262.547
21
-93.9495
0
LINE
8
BLACK
6
CONTINUOUS
10
262.547
20
-93.9495
11
262.546
21
-93.9494
0
LINE
8
BLACK
6
CONTINUOUS
10
262.546
20
-93.9494
11
173.266
21
-93.9475
0
LINE
8
BLACK
6
CONTINUOUS
10
173.266
20
-93.9475
11
173.265
21
-93.9476
0
LINE
8
BLACK
6
CONTINUOUS
10
173.265
20
-93.9476
11
173.263
21
-93.9475
0
LINE
8
BLACK
6
CONTINUOUS
10
173.263
20
-93.9475
11
173.263
21
-93.9475
0
LINE
8
BLACK
6
CONTINUOUS
10
173.263
20
-93.9475
11
173.262
21
-93.9474
0
LINE
8
BLACK
6
CONTINUOUS
10
173.262
20
-93.9474
11
173.26
21
-93.9473
0
LINE
8
BLACK
6
CONTINUOUS
10
173.26
20
-93.9473
11
173.26
21
-93.9472
0
LINE
8
BLACK
6
CONTINUOUS
10
173.26
20
-93.9472
11
173.259
21
-93.9471
0
LINE
8
BLACK
6
CONTINUOUS
10
173.259
20
-93.9471
11
173.257
21
-93.9466
0
LINE
8
BLACK
6
CONTINUOUS
10
173.257
20
-93.9466
11
173.256
21
-93.9464
0
LINE
8
BLACK
6
CONTINUOUS
10
173.256
20
-93.9464
11
173.256
21
-93.9462
0
LINE
8
BLACK
6
CONTINUOUS
10
173.256
20
-93.9462
11
173.254
21
-93.9457
0
LINE
8
BLACK
6
CONTINUOUS
10
173.254
20
-93.9457
11
173.254
21
-93.9454
0
LINE
8
BLACK
6
CONTINUOUS
10
173.254
20
-93.9454
11
155.357
21
-87.4316
0
LINE
8
BLACK
6
CONTINUOUS
10
155.357
20
-87.4316
11
116.303
21
-83.3518
0
LINE
8
BLACK
6
CONTINUOUS
10
116.303
20
-83.3518
11
95.162
21
-85.7848
  0
ENDSEC
  0
EOF
